<svg preserveAspectRatio="none" width="100%" height="100%" overflow="visible" style="display: block;" viewBox="0 0 12 12" fill="none" xmlns="http://www.w3.org/2000/svg">
<g id="streamline:party-popper-solid">
<path id="Vector" fill-rule="evenodd" clip-rule="evenodd" d="M5.21704 0.431659C5.2829 0.454968 5.34362 0.491319 5.39572 0.538632C5.44783 0.585945 5.4903 0.643292 5.5207 0.707394C5.55111 0.771496 5.56885 0.841096 5.57292 0.912212C5.57699 0.983329 5.56731 1.05457 5.54442 1.12186C5.34082 1.7214 5.36787 2.37764 5.62008 2.95756C5.67699 3.08905 5.68047 3.23827 5.62975 3.37238C5.57903 3.50649 5.47826 3.61452 5.34962 3.67269C5.22097 3.73087 5.07498 3.73442 4.94377 3.68258C4.81256 3.63074 4.70687 3.52774 4.64995 3.39625C4.28907 2.56555 4.2504 1.62574 4.54177 0.767C4.56443 0.699554 4.59989 0.637342 4.64612 0.583928C4.69235 0.530515 4.74844 0.486951 4.81117 0.455731C4.8739 0.424512 4.94204 0.406252 5.01169 0.401997C5.08133 0.397742 5.15112 0.408299 5.21704 0.431659ZM3.55326 2.36999C3.57257 2.22758 3.53575 2.08315 3.45088 1.96849C3.36601 1.85382 3.24006 1.77831 3.10072 1.75857C2.96139 1.73883 2.82008 1.77647 2.7079 1.86321C2.59572 1.94996 2.52184 2.0787 2.50252 2.22111C2.43483 2.71884 2.5475 3.22469 2.8193 3.64342C2.85784 3.70274 2.90742 3.75372 2.96524 3.79345C3.02305 3.83318 3.08795 3.86088 3.15623 3.87498C3.22452 3.88907 3.29485 3.88928 3.36322 3.87559C3.43158 3.8619 3.49664 3.83458 3.55467 3.79519C3.61271 3.75581 3.66258 3.70512 3.70146 3.64603C3.74033 3.58694 3.76743 3.52061 3.78122 3.45081C3.79501 3.38102 3.79521 3.30913 3.78182 3.23925C3.76842 3.16938 3.7417 3.10288 3.70316 3.04357C3.5745 2.84524 3.52119 2.60569 3.55326 2.36999ZM7.71447 3.38686C7.52122 3.33625 7.31861 3.33621 7.12533 3.38674C6.93206 3.43726 6.75434 3.53672 6.60859 3.67595L6.6001 3.68462L3.83468 6.51117L3.83114 6.51479C3.69355 6.65951 3.59373 6.83725 3.54085 7.03168C3.48797 7.2261 3.48371 7.43099 3.52848 7.62754C3.57324 7.82409 3.66559 8.00599 3.79705 8.15655C3.92851 8.30712 4.09487 8.42152 4.28085 8.48926L8.68743 10.1681L8.69238 10.1703C8.89703 10.2444 9.11795 10.2583 9.32994 10.2103C9.54193 10.1623 9.73647 10.0545 9.89139 9.89897C10.0463 9.74349 10.1554 9.54665 10.2062 9.33088C10.257 9.11512 10.2474 8.88911 10.1787 8.67861L8.54318 4.17824C8.48049 3.98608 8.37176 3.81301 8.22689 3.67479C8.08203 3.53657 7.90634 3.43758 7.71447 3.38686ZM2.67364 6.0031C2.45083 5.95061 2.21688 5.98488 2.01746 6.09922C1.89463 6.16928 1.7496 6.1866 1.61428 6.14736C1.47895 6.10812 1.36442 6.01554 1.29588 5.89C1.22734 5.76445 1.2104 5.61621 1.24878 5.4779C1.28717 5.33958 1.37775 5.22252 1.50058 5.15246C1.92861 4.90771 2.43027 4.83406 2.90839 4.94576C3.04557 4.97758 3.16477 5.0638 3.23976 5.18544C3.31474 5.30708 3.33938 5.45419 3.30825 5.5944C3.27712 5.73462 3.19277 5.85644 3.07376 5.93309C2.95475 6.00974 2.81082 6.03492 2.67364 6.0031ZM1.10815 2.81591C0.920615 2.81591 0.740764 2.89205 0.60816 3.02759C0.475555 3.16312 0.401058 3.34695 0.401058 3.53863C0.401058 3.73031 0.475555 3.91413 0.60816 4.04967C0.740764 4.1852 0.920615 4.26135 1.10815 4.26135C1.29568 4.26135 1.47553 4.1852 1.60813 4.04967C1.74074 3.91413 1.81524 3.73031 1.81524 3.53863C1.81524 3.34695 1.74074 3.16312 1.60813 3.02759C1.47553 2.89205 1.29568 2.81591 1.10815 2.81591Z" fill="var(--fill-0, white)"/>
</g>
</svg>
