<svg preserveAspectRatio="none" width="100%" height="100%" overflow="visible" style="display: block;" viewBox="0 0 24 24" fill="none" xmlns="http://www.w3.org/2000/svg">
<g id="iconoir:spark-solid">
<path id="Union" d="M12 2.25C12.4142 2.25 12.75 2.58579 12.75 3C12.75 6.09606 13.413 8.10473 14.6709 9.35449C15.9298 10.6051 17.9396 11.25 21 11.25C21.4142 11.25 21.75 11.5858 21.75 12C21.75 12.4142 21.4142 12.75 21 12.75C17.9444 12.75 15.9336 13.4121 14.6729 14.6729C13.4121 15.9336 12.75 17.9444 12.75 21C12.75 21.4142 12.4142 21.75 12 21.75C11.5858 21.75 11.25 21.4142 11.25 21C11.25 17.9457 10.5836 15.9341 9.32031 14.6729C8.05679 13.4116 6.04521 12.75 3 12.75C2.58579 12.75 2.25 12.4142 2.25 12C2.25 11.5858 2.58579 11.25 3 11.25C6.05042 11.25 8.0606 10.605 9.32227 9.35352C10.5827 8.10329 11.25 6.09479 11.25 3C11.25 2.58579 11.5858 2.25 12 2.25Z" fill="var(--fill-0, #A2CCE1)"/>
</g>
</svg>
